<svg enable-background="new 0 0 24 24" height="512" viewBox="0 0 24 24" width="512" xmlns="http://www.w3.org/2000/svg"><path d="m21.5 24h-19c-1.379 0-2.5-1.122-2.5-2.5v-19c0-1.378 1.121-2.5 2.5-2.5h19c1.379 0 2.5 1.122 2.5 2.5v19c0 1.378-1.121 2.5-2.5 2.5zm-19-23c-.827 0-1.5.673-1.5 1.5v19c0 .827.673 1.5 1.5 1.5h19c.827 0 1.5-.673 1.5-1.5v-19c0-.827-.673-1.5-1.5-1.5z"/><path d="m18.5 18h-9c-.141 0-.275-.06-.37-.164l-5-5.5c-.173-.191-.173-.482 0-.673l5-5.5c.095-.103.229-.163.37-.163h9c.827 0 1.5.673 1.5 1.5v9c0 .827-.673 1.5-1.5 1.5zm-8.779-1h8.779c.275 0 .5-.224.5-.5v-9c0-.276-.225-.5-.5-.5h-8.779l-4.545 5z"/><path d="m16.5 14.5c-.128 0-.256-.049-.354-.146l-4-4c-.195-.195-.195-.512 0-.707s.512-.195.707 0l4 4c.195.195.195.512 0 .707-.097.097-.225.146-.353.146z"/><path d="m12.5 14.5c-.128 0-.256-.049-.354-.146-.195-.195-.195-.512 0-.707l4-4c.195-.195.512-.195.707 0s.195.512 0 .707l-4 4c-.097.097-.225.146-.353.146z"/></svg>