<svg width="32" height="32" xmlns="http://www.w3.org/2000/svg">

 <title/>
 <g>
  <title>background</title>
  <rect fill="none" id="canvas_background" height="402" width="582" y="-1" x="-1"/>
 </g>
 <g>
  <title>Layer 1</title>
  <path fill="#101820" id="svg_1" d="m16,28.72a3,3 0 0 1 -2.13,-0.88l-10.3,-10.3a8.72,8.72 0 0 1 -2.52,-6.25a8.06,8.06 0 0 1 8.14,-8a8.06,8.06 0 0 1 5.81,2.39l1,1l0.82,-0.82l0,0a8.39,8.39 0 0 1 11,-0.89a8.25,8.25 0 0 1 0.81,12.36l-10.5,10.51a3,3 0 0 1 -2.13,0.88zm-6.85,-23.44a6.12,6.12 0 0 0 -4.26,1.72a6,6 0 0 0 -1.84,4.33a6.72,6.72 0 0 0 1.95,4.8l10.3,10.3a1,1 0 0 0 1.42,0l10.51,-10.52a6.25,6.25 0 0 0 1.77,-4.8a6.18,6.18 0 0 0 -2.43,-4.55a6.37,6.37 0 0 0 -8.37,0.71l-1.49,1.53a1,1 0 0 1 -1.42,0l-1.7,-1.7a6.28,6.28 0 0 0 -4.4,-1.82l-0.04,0z" class="cls-1"/>
  <ellipse ry="4.027579" rx="4.88275" id="svg_7" cy="11.886213" cx="9.710355" fill-opacity="null" stroke-width="null" stroke="null" fill="#101820"/>
  <ellipse stroke="null" ry="6.289645" rx="4.993095" id="svg_8" cy="21.099989" cx="15.944828" fill-opacity="null" stroke-width="null" fill="#101820"/>
  <ellipse stroke="null" ry="6.289645" rx="7.641366" id="svg_9" cy="11.389661" cx="22.620679" fill-opacity="null" stroke-width="null" fill="#101820"/>
  <ellipse stroke="null" ry="7.144816" rx="11.19998" id="svg_10" cy="16.162066" cx="15.972415" fill-opacity="null" stroke-width="null" fill="#101820"/>
  <ellipse stroke="null" ry="5.958611" rx="7.586194" id="svg_11" cy="11.003455" cx="8.606909" fill-opacity="null" stroke-width="null" fill="#101820"/>
 </g>
</svg>