<svg id="Capa_1" enable-background="new 0 0 512 512" height="512" viewBox="0 0 512 512" width="512" xmlns="http://www.w3.org/2000/svg"><g><g><path d="m182.559 318.227c35.277 0 63.977-28.7 63.977-63.977s-28.7-63.976-63.977-63.976-63.977 28.699-63.977 63.976 28.7 63.977 63.977 63.977zm0-97.909c18.71 0 33.932 15.221 33.932 33.931s-15.222 33.932-33.932 33.932-33.932-15.222-33.932-33.932 15.222-33.931 33.932-33.931z"/><path d="m126.328 418.24h112.462v30.045h-112.462z"/><path d="m126.328 357.699h112.462v30.045h-112.462z"/></g><path d="m467.517 0h-276.537v120.113h-146.497v391.887h276.537v-119.47h146.497zm-246.492 51.789 53.67 68.323h-53.67zm69.95 430.166h-216.447v-331.797h216.446v331.797zm146.497-119.47h-116.452v-42.54h65.957v-30.045h-65.957v-30.495h65.957v-30.045h-65.957v-98.912l-78.869-100.403h195.32v332.44z"/></g></svg>